PathFileType	4	(X/Y/Z)	C:/Users/beibeiliu/ov580/test_trc/capture2\sequence.10_training_dense_right.trc
DataRate	CameraRate	NumFrames	NumMarkers	Units	OrigDataRate	OrigDataStartFrame	OrigNumFrames
120	120	12	19	mm	120	1	349
Frame#	Time	ThumbCMC			ThumbMCP			ThumbIP			ThumbTip			IndexMCP			IndexPIP			IndexTip			MiddleMCP			MiddlePIP			MiddleTip			RingMCP			RingPIP			RingTip			PinkyMCP			PinkyPIP			PinkyTip			BackHand1			BackHand2			BackHand3	
		X0	Y0	Z0	X1	Y1	Z1	X2	Y2	Z2	X3	Y3	Z3	X4	Y4	Z4	X5	Y5	Z5	X6	Y6	Z6	X7	Y7	Z7	X8	Y8	Z8	X9	Y9	Z9	X10	Y10	Z10	X11	Y11	Z11	X12	Y12	Z12	X13	Y13	Z13	X14	Y14	Z14	X15	Y15	Z15	X16	Y16	Z16	X17	Y17	Z17	X18	Y18	Z18	
0	0	107.117	13.4645	-27.9692	84.4177	2.08917	-47.334	73.0841	-3.79831	-72.0837	65.4196	-8.51102	-92.192	118.3	25.4284	-101.53	113.553	21.085	-129.401	109.802	21.3245	-150.105	147.873	23.8996	-106.925	146.505	19.6027	-132.554	152.628	15.2156	-160.855	165.615	16.3807	-102.498	170.58	12.2785	-126.855	177.717	8.94989	-152.734	183.274	7.53991	-88.9821	193.404	3.20375	-108.104	206.171	4.20474	-125.624	163.491	28.3086	-52.5555	161.859	33.4342	-21.6967	132.18	35.1908	-37.973	
1	0.00833333	104.002	13.0949	-33.3428	87.5502	1.27068	-46.7323	73.592	-3.9695	-73.7973	61.298	-9.06661	-89.6403	117.582	23.9477	-101.979	110.751	21.8176	-129.027	112.618	19.9985	-154.291	143.356	23.337	-106.571	145.384	18.7486	-136.916	151.552	15.5128	-163.108	162.617	16.4971	-105.17	173.615	11.4502	-123.754	175.189	8.95908	-152.775	181.654	6.54289	-88.527	193.112	2.75016	-109.421	202.149	3.65111	-130.507	162.276	26.9949	-52.7376	161.07	31.4953	-22.403	130.823	35.3909	-41.6117	
2	0.0166667	102.898	14.3294	-28.6432	87.8059	1.76559	-49.6383	71.6259	-2.98572	-72.8505	63.5723	-7.67252	-91.5986	117.949	25.134	-102.999	110.276	22.8778	-125.667	113.293	21.7053	-151.473	143.744	23.9864	-112.252	144.859	19.612	-136.985	151.672	15.6738	-164.902	165.239	16.9017	-104.115	169.203	12.5624	-124.624	175.267	9.02541	-151.858	182.025	8.59172	-90.577	192.006	2.30631	-107.554	201.377	4.49561	-126.871	163.361	28.1708	-54.3465	164.385	32.9537	-25.5876	132.978	36.8001	-40.6023	
3	0.025	102.13	15.3256	-32.1454	85.8067	2.76068	-47.3268	72.4719	-2.49789	-74.4756	61.193	-8.0311	-92.2206	116.088	26.4455	-101.391	110.111	23.2915	-130.318	114.161	22.5521	-153.549	147.775	24.9408	-110.215	149.037	19.7772	-138.157	153.833	15.0576	-163.273	164.035	19.072	-106.34	171.079	13.9345	-128.925	174.055	9.85837	-152.991	181.836	9.42895	-89.812	190.218	3.49703	-106.401	203.52	5.2027	-130.681	160.936	31.4157	-55.0368	162.82	32.4136	-23.2399	129.489	37.0839	-44.6689	
4	0.0333333	100.395	14.7997	-33.0518	86.0056	1.56791	-47.9709	71.2654	-3.5456	-72.5259	61.5536	-9.75523	-92.8124	116.651	25.4478	-104.848	109.423	23.1373	-126.768	113.565	20.8951	-152.398	142.19	24.2528	-106.875	146.073	17.9687	-137.737	149.823	14.9451	-161.536	162.317	16.4807	-101.056	167.544	12.3944	-129.318	173.885	9.76392	-154.02	182.14	7.00826	-86.6234	191.172	3.08796	-110.525	202.81	2.83924	-130.794	160.683	28.9418	-51.4527	165.112	32.5298	-23.0457	134.004	35.1673	-40.3241	
5	0.0416667	101.175	13.7237	-34.3128	87.957	0.706444	-48.9077	73.6259	-4.85972	-68.7376	63.1419	-10.1516	-89.8119	114	24.3205	-103.301	113.604	21.6907	-129.879	107.578	21.3417	-155.07	144.904	23.3015	-107.233	148.655	18.3539	-134.276	149.592	14.4521	-160.118	161.806	16.5825	-104.934	170.647	12.4353	-126.019	171.613	8.67601	-150.506	184.342	6.78655	-90.055	189.11	2.94997	-107.57	205.373	3.69532	-131.433	165.032	27.2064	-54.3044	162.46	31.1372	-26.2384	133.848	34.5892	-44.5778	
6	0.05	103.626	12.6478	-33.4473	84.2783	1.57078	-47.2501	68.4214	-4.10777	-70.8911	58.9873	-10.5614	-88.6377	115.355	23.7937	-103.839	108.363	21.555	-129.78	112.982	20.1365	-154.267	142.3	23.6697	-108.816	146.134	17.9126	-134.879	150.194	13.3373	-162.386	165.988	16.1397	-104.623	171.72	11.5255	-126.461	175.141	8.09558	-150.54	181.234	6.12375	-88.1901	193.562	0.227235	-109.248	205.444	1.40253	-132.104	161.635	28.3092	-52.0205	160.37	30.6359	-24.3197	131.775	33.7869	-44.0615	
7	0.0583333	102.421	12.4069	-28.9368	84.535	0.96923	-47.366	69.6342	-4.73298	-69.6362	58.76	-10.2248	-90.1741	113.042	24.1974	-103.854	110.941	19.926	-131.67	109.871	19.817	-156.561	144.008	21.641	-110.508	145.803	16.4671	-136.463	152.63	11.9561	-166.193	166.171	14.0478	-105.479	172.287	9.88655	-127.778	171.802	7.89828	-150.827	181.212	5.62336	-87.0916	189.659	0.448863	-106.772	205.352	1.5582	-129.141	161.182	28.601	-56.6609	161.247	30.949	-22.7242	129.498	34.5528	-41.1761	
8	0.0666667	104.911	11.5968	-33.8725	84.5025	0.268168	-46.7406	71.8053	-5.19192	-67.8771	59.1915	-11.056	-87.3701	114.662	22.7823	-105.195	109.399	20.6034	-129.693	111.26	19.4253	-151.796	144.228	21.7386	-109.194	146.361	15.5119	-138.526	148.679	12.0206	-160.392	162.291	15.2953	-101.911	168.264	9.97174	-125.351	173.362	7.07696	-153.824	182.679	5.43779	-88.8404	189.013	-0.253199	-109.866	205.038	-1.11668	-126.624	165.244	27.8595	-55.012	164.5	29.6852	-25.8369	132.893	32.9242	-40.2554	
9	0.075	102.476	12.4386	-28.5797	84.0064	-0.852245	-46.8799	70.1165	-5.34599	-67.3357	58.3335	-10.6323	-88.7179	116.467	22.7944	-104.841	107.87	19.5013	-125.71	109.541	17.5904	-154.218	140.813	22.3093	-111.623	145.347	15.5068	-138.027	147.201	12.2748	-161.179	162.895	14.4717	-101.783	166.696	9.32621	-125.313	170.835	5.63481	-152.118	184.363	4.10522	-88.5432	189.642	-0.967195	-108.873	200.401	0.482982	-129.223	159.695	25.3139	-52.3643	164.12	28.1862	-26.7125	134.717	34.016	-39.3407	
10	0.0833333	104.443	12.3929	-32.1021	81.5703	0.407284	-49.0706	66.773	-6.19161	-69.0959	58.4562	-11.7631	-90.1715	114.208	23.4004	-100.972	107.101	19.7138	-129.955	112.434	18.2955	-152.236	142.797	20.9619	-110.574	147.305	16.0686	-134.114	149.095	10.8233	-161.39	164.261	14.0475	-105.293	167.94	9.42417	-126.175	171.068	4.92326	-152.026	184.139	2.92439	-88.656	188.66	-1.46613	-108.969	201.457	-0.558387	-132.395	159.633	25.7091	-50.791	162.455	30.0395	-22.9157	133.015	31.7518	-39.0221	
11	0.0916667	102.427	10.893	-27.7628	86.4649	-0.796675	-47.7761	68.0181	-6.59185	-73.0882	56.1916	-11.7202	-92.0438	112.019	22.3841	-103.268	109.274	19.3006	-129.57	109.392	16.635	-154.918	139.834	20.8147	-107.349	145.618	15.4989	-135.747	145.906	11.1107	-162.23	163.22	13.7307	-104.254	168.701	7.92087	-125.706	169.887	2.94221	-154.081	179.716	3.63089	-92.4485	190.339	-2.10216	-111.311	202.45	-3.1531	-130.503	161.655	24.4045	-55.6063	161.338	27.6951	-24.2322	128.753	31.2239	-43.0358	
